<svg width="771" height="900" viewBox="0 0 771 900" fill="none" xmlns="http://www.w3.org/2000/svg">
<rect width="771" height="900" fill="url(#paint0_linear_0_1)"/>
<circle cx="172" cy="878" r="269.5" stroke="#1778D9"/>
<circle cx="75" cy="793" r="269.5" stroke="#1778D9"/>
<circle cx="29" cy="632" r="269.5" stroke="#1778D9"/>
<circle cx="269" cy="908" r="269.5" stroke="#1778D9"/>
<circle cx="298.5" cy="640.5" r="11.5" fill="#1778D9"/>
<circle cx="75.5" cy="367.5" r="5.5" fill="#1778D9"/>
<circle cx="-1.5" cy="534.5" r="5.5" fill="#1778D9"/>
<circle cx="529.5" cy="838.5" r="5.5" fill="#1778D9"/>
<circle cx="439.5" cy="900.5" r="5.5" fill="#1778D9"/>
<circle cx="249.5" cy="476.5" r="3.5" fill="#1778D9"/>
<circle cx="126.5" cy="529.5" r="3.5" fill="#1778D9"/>
<circle cx="23.5" cy="796.5" r="3.5" fill="#1778D9"/>
<circle cx="164.5" cy="659.5" r="3.5" fill="#1778D9"/>
<circle cx="287.5" cy="710.5" r="3.5" fill="#1778D9"/>
<circle cx="228.5" cy="813.5" r="3.5" fill="#1778D9"/>
<circle cx="119.5" cy="885.5" r="3.5" fill="#1778D9"/>
<circle cx="61.5" cy="632.5" r="3.5" fill="#1778D9"/>
<circle cx="82.5" cy="714.5" r="3.5" fill="#1778D9"/>
<circle cx="249.5" cy="588.5" r="3.5" fill="#1778D9"/>
<circle cx="430.5" cy="692.5" r="3.5" fill="#1778D9"/>
<circle cx="426.5" cy="789.5" r="3.5" fill="#1778D9"/>
<circle cx="345.5" cy="671.5" r="3.5" fill="#1778D9"/>
<defs>
<linearGradient id="paint0_linear_0_1" x1="757.305" y1="-1.22572e-06" x2="7.66927" y2="899.123" gradientUnits="userSpaceOnUse">
<stop stop-color="#1A81EC"/>
<stop offset="1" stop-color="#002540"/>
</linearGradient>
</defs>
</svg>
